<?xml version="1.0" encoding="utf-8"?>
<!-- Generator: Adobe Illustrator 24.1.3, SVG Export Plug-In . SVG Version: 6.00 Build 0)  -->
<svg version="1.1" id="Layer_1" xmlns="http://www.w3.org/2000/svg" xmlns:xlink="http://www.w3.org/1999/xlink" x="0px" y="0px"
	 viewBox="0 0 64 64" style="enable-background:new 0 0 64 64;" xml:space="preserve">
<g>
	<path d="M54,15.7c0-0.2,0-0.4-0.1-0.5c-0.3-0.5-0.9-0.6-1.4-0.4c-1.9,1.1-4.2,1.8-6.5,1.8c-6.6,0-12.1-4.9-12.9-11.4
		c-0.1-0.5-0.5-0.9-1-0.9c-0.6-0.1-1.1,0.3-1.2,0.9c-0.8,6.5-6.4,11.4-12.9,11.4c-2.3,0-4.5-0.6-6.5-1.8C10.9,14.5,10,15,10,15.7
		v22.9C10.1,50.7,31.2,61,32.4,60.5c6.7-2.9,22.1-12.4,21.6-21.9C54,38.6,54,15.7,54,15.7z M52,38.6c0.3,8.7-14.5,17.4-20,19.9
		c-2.9-1.4-20-9.9-20-19.9V17.4c7.6,3.5,17.2-0.6,20-8.3c2.8,7.8,12.5,11.8,20,8.3V38.6z"/>
	<path d="M4,13c0.6,0,1-0.4,1-1V5h7c1.3,0,1.3-2,0-2c0,0-8,0-8,0C3.4,3,3,3.4,3,4v8C3,12.6,3.4,13,4,13z"/>
	<path d="M60,3h-8c-1.3,0-1.3,2,0,2c0,0,7,0,7,0v7c0,1.3,2,1.3,2,0c0,0,0-8,0-8C61,3.4,60.6,3,60,3z"/>
	<path d="M60,51c-0.6,0-1,0.4-1,1v7h-7c-1.3,0-1.3,2,0,2c0,0,8,0,8,0c0.6,0,1-0.4,1-1v-8C61,51.4,60.6,51,60,51z"/>
	<path d="M12,59H5v-7c0-1.3-2-1.3-2,0c0,0,0,8,0,8c0,0.6,0.4,1,1,1h8C13.3,61,13.3,59,12,59z"/>
</g>
</svg>
