<?xml version="1.0" encoding="UTF-8" standalone="no"?> <svg id="Layer_1" data-name="Layer 1" xmlns="http://www.w3.org/2000/svg" viewBox="0 0 48 48"><path d="M24,47a1.006,1.006,0,0,1-.3-.045C10.628,42.869,4,30.436,4,10a1,1,0,0,1,.821-.984C4.929,9,15.69,6.982,23.4,1.2a1,1,0,0,1,1.2,0C32.31,6.982,43.071,9,43.179,9.016A1,1,0,0,1,44,10c0,20.436-6.628,32.869-19.7,36.955A1.006,1.006,0,0,1,24,47ZM6,10.816c.17,18.817,6.222,30.3,18,34.134,11.775-3.838,17.827-15.317,18-34.134-2.668-.577-11.175-2.7-18-7.577C17.178,8.112,8.671,10.239,6,10.816Z"/><path d="M24,41.7a1.009,1.009,0,0,1-.37-.071C14.541,38.013,9.785,28.961,9.089,13.958a1,1,0,0,1,.728-1.009A55.906,55.906,0,0,0,23.479,7.174a1,1,0,0,1,1.042,0,55.906,55.906,0,0,0,13.662,5.775,1,1,0,0,1,.728,1.009c-.7,15-5.452,24.055-14.541,27.671A1.009,1.009,0,0,1,24,41.7ZM11.127,14.653C11.9,28.107,16.111,36.285,24,39.619c7.889-3.334,12.1-11.512,12.873-24.966A57.875,57.875,0,0,1,24,9.194,57.875,57.875,0,0,1,11.127,14.653Z"/></svg>