<?xml version="1.0" encoding="UTF-8" standalone="no"?> <svg id="Layer_1" data-name="Layer 1" xmlns="http://www.w3.org/2000/svg" viewBox="0 0 64 64"><title>Sword</title><path d="M48.8,15.2l-1.21,3.65a1.87,1.87,0,0,1-.56.95l-4.36,4.36L29.12,37.71l-3.48,3.48-2.83-2.83L32,29.17,43.88,17.29C45.16,16,47.1,15.77,48.8,15.2Z"/><path d="M48.8,15.2l-1.21,3.65a1.87,1.87,0,0,1-.56.95l-4.36,4.36L29.12,37.71l-3.48,3.48-2.83-2.83L32,29.17,43.88,17.29C45.16,16,47.1,15.77,48.8,15.2Z"/><polygon points="20.69 44.73 15.03 50.38 13.62 48.97 19.27 43.31 20.69 44.73"/><polygon points="20.69 44.73 15.03 50.38 13.62 48.97 19.27 43.31 20.69 44.73"/><path d="M18.56,37l8.49,8.49-1.41,1.41-8.49-8.49Z"/><path d="M27.05,45.44l-1.41,1.41-8.49-8.49L18.56,37Z"/></svg>